#!OML:ASF E:\CV Data\Top Level 1\Subject 1\Session 1\player.ASF
:FULLY-SPECIFIED
:DEGREES
1068
root 7.57684 17.8195 -11.1256 9.41715 -16.7542 -0.933216
lowerback -0.377914 3.45259 0.551094
upperback -3.50067 4.63346 0.56949
thorax -3.39033 2.30444 0.158067
lowerneck -17.645 -2.94463 -9.44248
upperneck 23.1894 -2.89833 5.7395
head 10.5937 -1.48415 3.23224
rclavicle -4.08254e-014 -1.74931e-014
rhumerus -7.51451 34.0598 -92.8004
rradius 74.9544
rwrist 19.658
rhand -38.721 22.3372
rfingers 7.12502
rthumb -11.7346 -7.31411
lclavicle -4.08254e-014 -1.74931e-014
lhumerus -22.0614 -16.8899 96.6493
lradius 66.6034
lwrist 60.084
lhand -12.902 31.7387
lfingers 7.12502
lthumb 13.1876 61.3016
rfemur -1.14331 -0.959538 19.1081
rtibia 14.2604
rfoot -17.7629 -23.3207
rtoes 0.97303
lfemur -19.6968 -0.150479 -17.5365
ltibia 20.3114
lfoot -5.51127 -1.81796
ltoes -4.15449
1069
root 7.58123 17.819 -11.1202 9.39197 -16.8713 -0.929096
lowerback -0.382374 3.46558 0.543684
upperback -3.47599 4.65009 0.560386
thorax -3.36209 2.31295 0.153724
lowerneck -17.6738 -2.94122 -9.436
upperneck 23.1979 -2.89447 5.74535
head 10.6019 -1.48089 3.23397
rclavicle 2.68359e-014 1.82882e-014
rhumerus -7.42269 34.1383 -92.7752
rradius 75.0521
rwrist 19.623
rhand -38.7453 22.3668
rfingers 7.12502
rthumb -11.758 -7.28319
lclavicle 2.68359e-014 1.82882e-014
lhumerus -21.9697 -16.9288 96.6315
lradius 66.6423
lwrist 60.1706
lhand -12.8384 31.9083
lfingers 7.12502
lthumb 13.2489 61.4672
rfemur -1.10908 -0.94752 19.0563
rtibia 14.2345
rfoot -17.7257 -23.239
rtoes 0.894527
lfemur -19.6486 -0.122141 -17.5654
ltibia 20.3326
lfoot -5.53119 -1.73316
ltoes -4.15323
1070
root 7.58545 17.8186 -11.1169 9.38235 -16.9509 -0.921909
lowerback -0.382226 3.46578 0.53168
upperback -3.46237 4.64981 0.552918
thorax -3.34839 2.31311 0.15326
lowerneck -17.6812 -2.9382 -9.43627
upperneck 23.2041 -2.89106 5.75039
head 10.6053 -1.4788 3.23646
rclavicle -7.78677e-014 -1.98785e-014
rhumerus -7.35027 34.2135 -92.7607
rradius 75.1464
rwrist 19.6002
rhand -38.7671 22.3645
rfingers 7.12502
rthumb -11.779 -7.28431
lclavicle -7.78677e-014 -1.98785e-014
lhumerus -21.887 -16.9708 96.6199
lradius 66.6761
lwrist 60.2284
lhand -12.7878 32.0104
lfingers 7.12502
lthumb 13.2978 61.5661
rfemur -1.10412 -0.942666 19.0133
rtibia 14.2284
rfoot -17.7012 -23.184
rtoes 0.834268
lfemur -19.6291 -0.103856 -17.5926
ltibia 20.3486
lfoot -5.5415 -1.67735
ltoes -4.14935
1071
root 7.58941 17.8184 -11.1152 9.38511 -17.0061 -0.915183
lowerback -0.382949 3.45872 0.516875
upperback -3.44757 4.63978 0.545864
thorax -3.33319 2.3085 0.155114
lowerneck -17.6925 -2.94014 -9.43997
upperneck 23.2061 -2.89349 5.7569
head 10.6086 -1.47939 3.23912
rclavicle -5.36843e-014 -4.17448e-015
rhumerus -7.27194 34.279 -92.7447
rradius 75.2323
rwrist 19.5852
rhand -38.7938 22.3782
rfingers 7.12502
rthumb -11.8048 -7.26911
lclavicle -5.36843e-014 -4.17448e-015
lhumerus -21.7923 -17.0219 96.6069
lradius 66.7027
lwrist 60.2688
lhand -12.7157 32.1797
lfingers 7.12502
lthumb 13.3673 61.7309
rfemur -1.12048 -0.935324 18.9802
rtibia 14.2359
rfoot -17.688 -23.151
rtoes 0.794527
lfemur -19.631 -0.0882711 -17.6158
ltibia 20.3609
lfoot -5.54574 -1.64461
ltoes -4.13756
1072
root 7.5933 17.8183 -11.1139 9.39081 -17.0603 -0.910612
lowerback -0.38433 3.45115 0.503242
upperback -3.43451 4.62915 0.540442
thorax -3.31949 2.30357 0.157976
lowerneck -17.6883 -2.94331 -9.45017
upperneck 23.209 -2.89724 5.76304
head 10.6094 -1.48145 3.24259
rclavicle -1.41137e-014 1.19271e-015
rhumerus -7.21158 34.3374 -92.7386
rradius 75.3153
rwrist 19.5791
rhand -38.8196 22.3858
rfingers 7.12502
rthumb -11.8297 -7.26008
lclavicle -1.41137e-014 1.19271e-015
lhumerus -21.7073 -17.0721 96.5995
lradius 66.7277
lwrist 60.3017
lhand -12.6639 32.2556
lfingers 7.12502
lthumb 13.4172 61.8035
rfemur -1.14304 -0.923773 18.9505
rtibia 14.2501
rfoot -17.6815 -23.1199
rtoes 0.769407
lfemur -19.6356 -0.0706033 -17.6364
ltibia 20.3712
lfoot -5.54829 -1.61425
ltoes -4.13149
1073
root 7.59702 17.8182 -11.1129 9.39749 -17.1137 -0.906338
lowerback -0.381553 3.44375 0.489575
upperback -3.42416 4.61881 0.534378
thorax -3.31087 2.29874 0.159805
lowerneck -17.6679 -2.94477 -9.45969
upperneck 23.2042 -2.89974 5.76747
head 10.6042 -1.48319 3.24537
rclavicle -5.09386e-015 8.74653e-015
rhumerus -7.16727 34.3857 -92.7438
rradius 75.3946
rwrist 19.5763
rhand -38.8369 22.3927
rfingers 7.12502
rthumb -11.8464 -7.25217
lclavicle -5.09386e-015 8.74653e-015
lhumerus -21.6323 -17.1235 96.5962
lradius 66.7508
lwrist 60.3352
lhand -12.6552 32.1959
lfingers 7.12502
lthumb 13.4255 61.7433
rfemur -1.16773 -0.908865 18.9223
rtibia 14.2665
rfoot -17.6795 -23.0912
rtoes 0.752958
lfemur -19.6413 -0.0494726 -17.6561
ltibia 20.3805
lfoot -5.55161 -1.58927
ltoes -4.12397
1074
root 7.60057 17.8181 -11.1122 9.40458 -17.1688 -0.902072
lowerback -0.371756 3.43703 0.474528
upperback -3.41847 4.6095 0.528216
thorax -3.31113 2.29442 0.161615
lowerneck -17.6301 -2.94503 -9.46916
upperneck 23.1955 -2.90151 5.76925
head 10.5942 -1.4851 3.24723
rclavicle -1.93691e-014 -2.98177e-015
rhumerus -7.14126 34.4257 -92.7598
rradius 75.4694
rwrist 19.5732
rhand -38.8544 22.4158
rfingers 7.12502
rthumb -11.8632 -7.22815
lclavicle -1.93691e-014 -2.98177e-015
lhumerus -21.5691 -17.1731 96.5988
lradius 66.7731
lwrist 60.3797
lhand -12.6943 32.0175
lfingers 7.12502
lthumb 13.3879 61.5673
rfemur -1.19316 -0.89064 18.8945
rtibia 14.2825
rfoot -17.6793 -23.0624
rtoes 0.748358
lfemur -19.6479 -0.0192389 -17.6766
ltibia 20.3898
lfoot -5.55691 -1.57146
ltoes -4.10967
